<svg xmlns="http://www.w3.org/2000/svg" viewBox="0 0 39.68 59.53"><defs><style>.cls-1{fill:#fff;}</style></defs><title>Asset 21x</title><g id="Layer_2" data-name="Layer 2"><g id="Layer_1-2" data-name="Layer 1"><polygon class="cls-1" points="39.69 0 39.11 0 0.58 0 0 0 0 0.64 0 58.89 0 59.53 0.58 59.53 39.11 59.53 39.69 59.53 39.69 58.89 39.69 0.64 39.69 0 39.69 0"/><path d="M39.11.64V58.89H.58V.64H39.11"/><rect class="cls-1" x="2.52" y="2.71" width="34.38" height="9.66"/><rect class="cls-1" x="2.5" y="14.47" width="34.4" height="35.51"/><polygon class="cls-1" points="2.51 56.79 2.51 52.08 9.41 52.08 9.41 53.18 5.28 53.18 5.28 53.85 8.78 53.85 8.78 54.95 5.28 54.95 5.28 55.69 9.57 55.69 9.57 56.79 2.51 56.79"/><path class="cls-1" d="M15.44,53.45a.52.52,0,0,0-.4-.32,2.53,2.53,0,0,0-.72-.09c-.61,0-.88.1-.88.28,0,.69,4.87.26,4.87,2,0,1.09-1.64,1.63-4,1.63s-3.69-.73-3.75-1.58h2.65a.69.69,0,0,0,.46.37,2.52,2.52,0,0,0,.79.12c.7,0,1.16-.12,1.16-.35,0-.71-4.88-.22-4.88-2,0-1,1.56-1.5,3.67-1.5,2.35,0,3.42.66,3.63,1.49Z"/><path class="cls-1" d="M22.46,54.12h1.09c.86,0,1.32-.12,1.32-.45s-.47-.49-1.11-.49h-1.3Zm0,1v1.64H19.69V52.08h4c2.82,0,3.75.43,3.75,1.34,0,.55-.44,1-1.42,1.16.89.18,1.43.29,1.43,1.24,0,.61,0,.83.29.83v.14H24.93a1.83,1.83,0,0,1-.14-.82c0-.62-.19-.82-1.48-.82Z"/><path class="cls-1" d="M31.91,53.18V54h1.16c.55,0,1-.14,1-.41s-.55-.38-1.14-.38Zm0,1.64v.87h1.21c.69,0,1.21-.08,1.21-.43s-.65-.44-1.53-.44Zm-2.77,2V52.08h4c1.91,0,3.42.25,3.42,1.18,0,.49-.57.84-1.1,1,.91.13,1.4.57,1.4,1.08,0,1.05-1.44,1.42-3.64,1.42Z"/><path d="M14.24,36l-.08-10.32,5.62,9ZM27.43,32.1a7.2,7.2,0,0,1-1.38.5c-3.53.88-6.05-1.05-7-4.41-.71-2.47-.29-4.65,1.39-6l-4.08-5.75L7.42,18.67,5.62,48l8.59-2.13,0-3.79,8.74-2.18L25,43.16,33.73,41l-6.3-8.9"/><path d="M21.18,27.66c.67,2.31,2,4.05,4.44,3.45a3.85,3.85,0,0,0,.87-.33l-5-7.12c-.75,1-.72,2.45-.26,4"/><path d="M23.16,22.61c2.43-.6,3.78,1.15,4.45,3.46.58,2,.48,3.85-1.12,4.71l.94,1.32c2.44-1.21,3.16-3.69,2.32-6.57-1-3.36-3.48-5.28-7-4.4a6,6,0,0,0-2.31,1.08l1,1.45a3,3,0,0,1,1.72-1.05"/><path d="M3.48,10.28,4.37,4.8h.89l.87,5.48H5.42L5.24,9.07H4.32l-.18,1.21Zm1.3-4.42h0L4.46,8.22H5.1Z"/><path d="M6.46,4.8H7.58A.8.8,0,0,1,8.12,5a1.23,1.23,0,0,1,.32.54,4.22,4.22,0,0,1,.15.85c0,.34,0,.72,0,1.14V8c0,.19,0,.39,0,.59s0,.41-.08.61a2.63,2.63,0,0,1-.18.54,1.08,1.08,0,0,1-.32.38.72.72,0,0,1-.47.15H6.46Zm.67,4.64h.33a.3.3,0,0,0,.24-.11A.63.63,0,0,0,7.86,9a5.43,5.43,0,0,0,.07-.58c0-.24,0-.53,0-.88s0-.49,0-.72a3.45,3.45,0,0,0-.05-.6,1.21,1.21,0,0,0-.14-.42.29.29,0,0,0-.27-.15H7.13Z"/><path d="M11.34,4.8V8.69a3.14,3.14,0,0,1-.05.61,2.14,2.14,0,0,1-.18.54,1.14,1.14,0,0,1-.34.38.86.86,0,0,1-.52.15.89.89,0,0,1-.82-.45,2.44,2.44,0,0,1-.27-1.23V4.8h.67V8.61a1.73,1.73,0,0,0,.11.72.34.34,0,0,0,.3.22.35.35,0,0,0,.33-.24,1.85,1.85,0,0,0,.1-.7V4.8Z"/><path d="M11.9,10.28V4.8h.67V9.37h1v.91Z"/><path d="M15.53,4.8v.91h-.75v4.57h-.67V5.71h-.75V4.8Z"/><path d="M17.84,8.79a2.75,2.75,0,0,1-.1.84,1.21,1.21,0,0,1-.27.48.74.74,0,0,1-.36.21,1.89,1.89,0,0,1-.39,0,.88.88,0,0,1-.51-.14,1,1,0,0,1-.3-.39,2.38,2.38,0,0,1-.13-.57,5,5,0,0,1,0-.68h.68V9a1.34,1.34,0,0,0,0,.31.53.53,0,0,0,.11.21.31.31,0,0,0,.22.07.25.25,0,0,0,.25-.17,1,1,0,0,0,.09-.45,1,1,0,0,0-.1-.43,1.62,1.62,0,0,0-.26-.34c-.1-.11-.2-.22-.32-.33a2.5,2.5,0,0,1-.33-.38A2.12,2.12,0,0,1,15.9,7a2.36,2.36,0,0,1-.1-.7,3.83,3.83,0,0,1,0-.6A1.66,1.66,0,0,1,16,5.16a.85.85,0,0,1,.32-.33,1,1,0,0,1,.51-.12.78.78,0,0,1,.73.4,2.32,2.32,0,0,1,.21,1.25h-.66c0-.1,0-.2,0-.3a1.93,1.93,0,0,0,0-.27A.49.49,0,0,0,17,5.6a.22.22,0,0,0-.16-.07.27.27,0,0,0-.25.15.74.74,0,0,0-.1.43,1,1,0,0,0,.1.45,1.64,1.64,0,0,0,.26.33l.32.31a1.91,1.91,0,0,1,.33.36,2.12,2.12,0,0,1,.25.5A2.18,2.18,0,0,1,17.84,8.79Z"/><path d="M20.39,10.37a.83.83,0,0,1-.64-.24,1.46,1.46,0,0,1-.33-.63,4.09,4.09,0,0,1-.12-.91c0-.34,0-.69,0-1s0-.71,0-1a4.09,4.09,0,0,1,.12-.91A1.46,1.46,0,0,1,19.75,5,1,1,0,0,1,21,5a1.46,1.46,0,0,1,.33.63,4.09,4.09,0,0,1,.12.91c0,.34,0,.69,0,1s0,.71,0,1a4.09,4.09,0,0,1-.12.91,1.46,1.46,0,0,1-.33.63A.83.83,0,0,1,20.39,10.37Zm0-.82a.28.28,0,0,0,.23-.12.84.84,0,0,0,.12-.36,3.33,3.33,0,0,0,.06-.62c0-.26,0-.56,0-.91s0-.65,0-.91A3.33,3.33,0,0,0,20.74,6a.89.89,0,0,0-.12-.36.28.28,0,0,0-.23-.12.27.27,0,0,0-.23.12A1.05,1.05,0,0,0,20,6a4.48,4.48,0,0,0-.06.62c0,.26,0,.56,0,.91s0,.65,0,.91a4.48,4.48,0,0,0,.06.62,1,1,0,0,0,.13.36A.27.27,0,0,0,20.39,9.55Z"/><path d="M22,10.28V4.8H23l.85,3.8h0V4.8h.63v5.48h-.89l-.87-4h0v4Z"/><path d="M25,10.28V4.8h.67V9.37h1v.91Z"/><path d="M27.25,8.38,26.41,4.8h.73l.48,2.32.52-2.32h.68l-.9,3.58v1.9h-.67Z"/><path d="M30.06,5.62a4.1,4.1,0,0,0,.33-.37,2.16,2.16,0,0,0,.27-.48h.6v5.51h-.67V6a2.91,2.91,0,0,1-.26.33l-.27.29Z"/><path d="M32.81,10.35a.75.75,0,0,1-.67-.35,2.15,2.15,0,0,1-.23-1.13c0-.17,0-.33,0-.48A2.62,2.62,0,0,1,32,8a1.16,1.16,0,0,1,.14-.34.69.69,0,0,1,.24-.24v0a.52.52,0,0,1-.22-.17A1,1,0,0,1,32,6.92,1.72,1.72,0,0,1,32,6.58c0-.13,0-.27,0-.42a2.15,2.15,0,0,1,.22-1.11.73.73,0,0,1,.65-.35.71.71,0,0,1,.65.35,2.14,2.14,0,0,1,.23,1.11c0,.15,0,.29,0,.42a1.7,1.7,0,0,1-.07.34.75.75,0,0,1-.13.27.47.47,0,0,1-.22.17v0a.69.69,0,0,1,.24.24,1.16,1.16,0,0,1,.14.34,1.84,1.84,0,0,1,.07.43c0,.15,0,.31,0,.48A2.05,2.05,0,0,1,33.48,10,.75.75,0,0,1,32.81,10.35Zm0-2.53a.17.17,0,0,0-.16.1,1,1,0,0,0-.08.26,1.73,1.73,0,0,0,0,.32v.3a2.18,2.18,0,0,0,0,.25,1,1,0,0,0,0,.24.47.47,0,0,0,.08.19.18.18,0,0,0,.28,0A.48.48,0,0,0,33,9.29a1,1,0,0,0,0-.24,2.18,2.18,0,0,0,0-.25V8.5a1.73,1.73,0,0,0,0-.32A.72.72,0,0,0,33,7.92.16.16,0,0,0,32.81,7.82Zm0-2.31a.15.15,0,0,0-.13.07.47.47,0,0,0-.07.19,1.57,1.57,0,0,0,0,.23v.46a1.5,1.5,0,0,0,0,.24.36.36,0,0,0,.07.19.14.14,0,0,0,.13.08A.17.17,0,0,0,33,6.89.69.69,0,0,0,33,6.7a1.57,1.57,0,0,0,0-.24c0-.08,0-.16,0-.24s0-.14,0-.22l0-.23a.68.68,0,0,0-.08-.19A.15.15,0,0,0,32.81,5.51Z"/><path d="M34.67,5.87h.49V7.36h.76V8.2h-.76V9.7h-.49V8.2h-.76V7.36h.76Z"/></g></g></svg>